<svg version="1.1" xmlns="http://www.w3.org/2000/svg" xmlns:xlink="http://www.w3.org/1999/xlink" x="0px" y="0px"
	 viewBox="0 0 620 457" style="enable-background:new 0 0 620 457;" xml:space="preserve">
	<path fill="#F2F2F2" d="M593.8,0.5H294.6l0,0v457l0,0h299.2c15.5,0,27.8-13.3,27.8-28.8v-400C621.6,13.2,609.4,0.5,593.8,0.5z"/>
	<path fill="#D0E8F7" d="M464.9,103L464.9,103c0,0-32.7-7.7-32.5-29.1c0.1-8.1,0-32.4,0-32.4c0-6.2,4.1-11.7,10-13.6
		c14.5-4.6,29.5-4.5,44.9,0.2c6,1.8,10.1,7.3,10.1,13.6c0,0,0,24.1,0,32.1C497.3,91.8,475.6,101.2,464.9,103z"/>
	<path fill="#1762BC" d="M464.9,96L464.9,96c-8.8-1.5-26.7-9.2-26.7-23.9V42.3c0-3,1.9-5.7,4.7-6.8c14.1-5.4,28.8-5.3,43.9,0.1
		c2.9,1,4.8,3.8,4.8,6.8v29.6C491.6,89.9,464.9,96,464.9,96z"/>
	<path fill="#FFFFFF" d="M478.4,55.3L478.4,55.3c0-7.3-5.3-13.2-11.8-13.2h-3.3c-6.5,0-11.8,5.9-11.8,13.2v0.1h-0.1v20.4h27.3V55.3
		H478.4z M455.6,55.2c0-4.7,3.4-8.5,7.6-8.5h3.3c4.2,0,7.6,3.8,7.6,8.5v0.1L455.6,55.2L455.6,55.2z"/>

	<text transform="matrix(1 0 0 1 399.1383 121.3169)" fill="#1762BC" font-family="Calibri-Bold" font-size="18px">Secure Access</text>

</svg>